<svg width="40" height="32" viewBox="0 0 40 32" fill="none" xmlns="http://www.w3.org/2000/svg">
    <path d="M16.4521 0.896554C14.3952 1.34269 12.4463 2.18959 10.7167 3.38891C8.98706 4.58823 7.51061 6.11648 6.37162 7.88639C5.23264 9.65631 4.45341 11.6332 4.07844 13.7043C3.70347 15.7754 3.7401 17.9 4.18624 19.9569L19.8493 16.5596L16.4521 0.896554Z" fill="#54ED86"/>
    <path d="M24.2113 31.982C26.2366 31.4091 28.1292 30.443 29.7811 29.1388C31.4331 27.8345 32.8119 26.2176 33.8389 24.3805C34.866 22.5434 35.5211 20.5219 35.7669 18.4316C36.0128 16.3413 35.8445 14.223 35.2716 12.1977L19.8494 16.5597L24.2113 31.982Z" fill="#54ED86"/>
</svg>                                    