<svg
    width="50"
    height="61"
    viewBox="0 0 77 61"
    fill="none"
    xmlns="http://www.w3.org/2000/svg"
>
    <path d="M30.9339 0.00802035C26.9217 0.878256 23.1201 2.53024 19.7464 4.86964C16.3726 7.20905 13.4926 10.1901 11.2709 13.6425C9.04915 17.0949 7.52918 20.9511 6.79777 24.991C6.06635 29.0308 6.13779 33.1751 7.00803 37.1874L37.5606 30.5606L30.9339 0.00802035Z" fill="#54ED86"/>
    <path d="M46.0692 60.6434C50.0197 59.5261 53.7115 57.6416 56.9337 55.0974C60.1559 52.5533 62.8455 49.3995 64.8489 45.8159C66.8523 42.2324 68.1302 38.2893 68.6097 34.2119C69.0892 30.1345 68.7609 26.0026 67.6435 22.052L37.5606 30.5605L46.0692 60.6434Z" fill="#54ED86"/>
</svg>